<?xml version="1.0" encoding="utf-8"?>
<!-- Generator: Adobe Illustrator 23.0.1, SVG Export Plug-In . SVG Version: 6.00 Build 0)  -->
<svg version="1.1" id="logo-header" xmlns="http://www.w3.org/2000/svg" xmlns:xlink="http://www.w3.org/1999/xlink" x="0px"
	 y="0px" viewBox="0 0 500 500" style="enable-background:new 0 0 500 500;" xml:space="preserve">
<style type="text/css">
	.st0{fill:#F8B3AE;}
	.st1{fill:#F2797B;}
	.st2{fill:#EF403C;}
</style>
<g>
	<path class="st0" d="M174.3,157.6c-18.3,2.1-50.7-53.4-50.7-53.4s58.8-30.6,71.5-17.1C207.8,100.4,192.5,155.5,174.3,157.6z"/>
	<path class="st0" d="M241.1,57.4C235.4,41,279.5,0,279.5,0s40.1,47.5,30.5,62C300.4,76.3,246.9,73.6,241.1,57.4z"/>
	<path class="st1" d="M186.2,172.8c-17.9,4.6-43.5-63.7-43.5-63.7s60.3-45.5,71.2-29.6C224.8,95.4,204.1,168.2,186.2,172.8z"/>
	<path class="st1" d="M233.7,64.4c-7.4-13.3,45.2-45.6,45.2-45.6s50.1,39.8,38.8,51.2C306.4,81.4,241,77.9,233.7,64.4z"/>
	<path d="M107.2,333L107.2,333L107.2,333L107.2,333L107.2,333z"/>
	<path class="st2" d="M308.4,266.2c0,0-34.1-14.2-53.9-22.8c-1-0.6-2.1-1.1-3.5-1.8c-21.7-11.1-34.1-36.5-34.1-62.9
		c0-41.4,33.5-74.9,74.9-74.9c31.7,0,58.8,19.7,69.7,47.5l18.3,21.4c1.6-7.5,2.5-15.2,2.5-23.2c-0.1-60.4-49.1-109.5-109.6-109.5
		S163.1,89.2,163.1,149.7c0,19.5,5.3,37.9,14.1,53.8c14.3,26,37.4,41.2,68.8,56.4c8.2,4,17.1,8,26.6,12.1c29.4,12.8,48,38,48,69.8
		c0,41.4-33.5,74.9-74.9,74.9s-60.7-32.3-74.9-74.9c-8-23.8-27.1-37.8-37.9-41.8c-6.3-2.4-12.7-4.5-19.8-4.5
		c-10.6,0-20.5,3.6-28.2,9.8c-4.4,3.5-7.5,8.7-7.5,14.8c0,9.8,8,17.6,17.6,17.6c4.3,0,8.1-1.5,11.1-3.9l-5.7-1.5
		c0,0,3.8-4.6,17.5-6.9c20.5-3.7,34.9,6.1,41.2,21.9c7.2,17.5-0.3,43,1,59.7c4.4,51.2,55.6,93,109.6,93
		c66.2,0,119.9-53.7,119.9-119.9C390,327.1,354.9,284.9,308.4,266.2z"/>
	<circle class="st1" cx="99.7" cy="322.5" r="22.2"/>
	<circle class="st1" cx="361" cy="167.6" r="19.6"/>
</g>
</svg>
