<?xml version="1.0" encoding="utf-8"?>
<!-- Generator: Adobe Illustrator 21.0.2, SVG Export Plug-In . SVG Version: 6.00 Build 0)  -->
<svg version="1.1" id="Layer_1" xmlns="http://www.w3.org/2000/svg" xmlns:xlink="http://www.w3.org/1999/xlink" x="0px" y="0px"
	 viewBox="0 0 1050 1050" style="enable-background:new 0 0 1050 1050;" xml:space="preserve">
<style type="text/css">
	.inner0{fill:#EF403C;}
</style>
<g>
	<g>
		<g>
			<path class="inner0" d="M525,10c2.8,0,5,2.2,5,5s-2.2,5-5,5s-5-2.2-5-5S522.2,10,525,10 M525,0c-8.3,0-15,6.7-15,15s6.7,15,15,15
				s15-6.7,15-15S533.3,0,525,0L525,0z"/>
		</g>
	</g>
</g>
<g>
	<g>
		<g>
			<path class="inner0" d="M1035,520c2.8,0,5,2.2,5,5s-2.2,5-5,5s-5-2.2-5-5S1032.2,520,1035,520 M1035,510c-8.3,0-15,6.7-15,15
				s6.7,15,15,15s15-6.7,15-15S1043.3,510,1035,510L1035,510z"/>
		</g>
	</g>
</g>
<g>
	<g>
		<g>
			<path class="inner0" d="M15,520c2.8,0,5,2.2,5,5s-2.2,5-5,5s-5-2.2-5-5S12.2,520,15,520 M15,510c-8.3,0-15,6.7-15,15s6.7,15,15,15
				s15-6.7,15-15S23.3,510,15,510L15,510z"/>
		</g>
	</g>
</g>
<g>
	<g>
		<g>
			<path class="inner0" d="M525,1030c2.8,0,5,2.2,5,5s-2.2,5-5,5s-5-2.2-5-5S522.2,1030,525,1030 M525,1020c-8.3,0-15,6.7-15,15
				s6.7,15,15,15s15-6.7,15-15S533.3,1020,525,1020L525,1020z"/>
		</g>
	</g>
</g>
</svg>
