<svg version="1.1" class="logo-s" xmlns="http://www.w3.org/2000/svg" xmlns:xlink="http://www.w3.org/1999/xlink" x="0px" y="0px"
	 viewBox="0 0 1000 1000" style="enable-background:new 0 0 1000 1000;" xml:space="preserve">
<style type="text/css">
	.logos0{fill:#F8B7B2;}
	.logos1{fill:#F2797B;}
	.logos2{fill:#EF565A;}
	.logos3{fill:#EF403C;}
</style>
<g>
	<path class="logos0" d="M342.3,327.4c-32.6,3.8-90.3-95.2-90.3-95.2s105-54.5,127.6-30.7S374.9,323.6,342.3,327.4z"/>
	<path class="logos0" d="M461.7,148.6c-10.2-29.1,68.5-102.4,68.5-102.4s71.6,84.9,54.4,110.5S471.9,177.7,461.7,148.6z"/>
	<path class="logos1" d="M363.6,354.5C331.6,362.7,286,241,286,241s107.5-81.2,127-52.9C432.4,216.5,395.6,346.3,363.6,354.5z"/>
	<path class="logos1" d="M448.3,161.2c-13.1-23.9,80.6-81.5,80.6-81.5s89.3,71,69.2,91.4S461.4,185.1,448.3,161.2z"/>
	<path class="logos2" d="M222.5,640.4L222.5,640.4L222.5,640.4c0,0,0.1,0,0.1-0.1L222.5,640.4z"/>
	<path class="logos3" d="M581.7,521.2c0,0-60.9-25.3-96.2-40.7c-1.8-1-3.9-2-6.1-3.2c-38.9-19.9-60.9-65.1-60.9-112.1
		c0-73.8,59.8-133.6,133.6-133.6c56.6,0,105,35.2,124.4,84.9l32.7,38.2c2.9-13.3,4.4-27.2,4.4-41.4C713.5,205.5,626,118,518.1,118
		s-195.4,87.5-195.4,195.4c0,34.9,9.4,67.5,25.2,96c25.6,46.3,66.8,73.7,122.8,100.6c14.7,7.1,30.6,14.2,47.4,21.5
		c52.3,22.9,85.7,67.8,85.7,124.7c0,73.8-59.8,133.6-133.6,133.6s-108.3-57.6-133.6-133.6c-14.1-42.3-48.3-67.4-67.5-74.6
		c-11.1-4.2-22.7-8-35.4-8c-19,0-36.6,6.4-50.5,17.3c-7.9,6.1-13.4,15.6-13.4,26.3c0,17.4,14.1,31.4,31.4,31.4
		c7.5,0,14.4-2.6,19.8-7l-10.1-2.7c0,0,6.9-8.1,31.2-12.4c36.6-6.5,62.1,10.9,73.7,39c12.9,31.2-0.7,76.8,1.9,106.5
		c7.9,91.4,99.1,166,195.6,166c118.2,0,214-95.8,214-214C727.2,629.8,664.5,554.5,581.7,521.2z"/>
	<circle class="logos1" cx="209.1" cy="621.5" r="39.7"/>
	<circle class="logos1" cx="675.4" cy="345.2" r="35"/>
</g>
</svg>
