<?xml version="1.0" encoding="utf-8"?>
<!-- Generator: Adobe Illustrator 23.0.1, SVG Export Plug-In . SVG Version: 6.00 Build 0)  -->
<svg version="1.1" id="Layer_1" xmlns="http://www.w3.org/2000/svg" xmlns:xlink="http://www.w3.org/1999/xlink" x="0px" y="0px"
	 viewBox="0 0 373.74 500" style="enable-background:new 0 0 373.74 500;" xml:space="preserve">
<style type="text/css">
	.st0{fill:#231F20;}
	.st1{fill:#EF403C;}
	.st2{fill:#72CCCC;}
</style>
<path class="st1" d="M186.24,500c-66.79,0-129.59-26.01-176.82-73.24l18.84-18.84c42.2,42.2,98.3,65.44,157.98,65.44
	c55.22,0,107.37-19.89,148.29-56.29l-157.71-157.7l18.84-18.84l176.82,176.82l-9.42,9.42C315.83,473.99,253.03,500,186.24,500z"/>
<path class="st2" d="M176.82,259.36L0,82.54l9.42-9.42c97.5-97.5,256.14-97.5,353.64,0l-18.84,18.84
	C260.27,8.01,125.59,4.97,37.96,82.82l157.7,157.7L176.82,259.36z"/>
</svg>
