<svg version="1.1" id="Layer_1" xmlns="http://www.w3.org/2000/svg" xmlns:xlink="http://www.w3.org/1999/xlink" x="0px" y="0px"
	 viewBox="0 0 1000 1000" style="enable-background:new 0 0 1000 1000;" xml:space="preserve">
<style type="text/css">
	.st0{fill:#F2797B;}
</style>
<g>
	<path class="st0" d="M500,0C223.9,0,0,223.9,0,500s223.9,500,500,500s500-223.9,500-500S776.1,0,500,0z M513,938
		c-96.5,0-187.8-74.7-195.7-166c-2.5-29.7,11-75.3-1.8-106.5c-10.8-26.4-33.8-43.3-66.9-39.9c-2,20-18.9,35.6-39.5,35.6
		c-21.9,0-39.7-17.8-39.7-39.7c0-1.3,0.1-2.5,0.2-3.7c0-0.2,0-0.4,0-0.6c0-10.7,5.5-20.2,13.3-26.3c13.8-11,31.5-17.3,50.5-17.3
		c12.7,0,24.2,3.8,35.3,8c19.2,7.3,53.3,32.3,67.5,74.7C361.5,732.3,396,790,469.9,790s133.8-60,133.8-133.8
		c0-56.8-33.3-101.8-85.7-124.7c-16.7-7.3-32.7-14.3-47.3-21.5c-56-27-97.2-54.3-122.8-100.7c-14.7-26.5-23.8-56.6-25-88.7
		c-32-21.8-70.8-88.5-70.8-88.5s67.4-35,105.8-36.6c2.3-1.2,4.6-2.3,6.9-3.3c25.4-32.1,60.6-56,101-67.3
		c15.9-33.5,64.4-78.6,64.4-78.6s40.6,48,53.3,82.8c75.7,26.9,129.9,99.2,130.1,184.1c0,13.3-1.3,26.4-3.9,39c0,0.1,0,0.1,0,0.2
		c-0.1,0.7-0.3,1.5-0.4,2.2l-0.1-0.1c-4.1,14.8-17.6,25.8-33.8,25.8c-19.3,0-35-15.7-35-35c0-18.9,14.9-34.2,33.6-35
		c-20.8-46.4-67.4-78.7-121.7-78.7c-73.8,0-133.7,59.8-133.7,133.7c0,47,22,92.3,60.8,112.2c2.3,1.2,4.3,2.2,6.2,3.2
		c35.3,15.3,96.2,40.7,96.2,40.7C664.5,554.5,727.2,629.8,727,724C727,842.2,631.2,938,513,938z"/>
</g>
</svg>
