<svg version="1.1" id="Layer_2" xmlns="http://www.w3.org/2000/svg" xmlns:xlink="http://www.w3.org/1999/xlink" x="0px" y="0px"
	 viewBox="0 0 100 69.4" style="enable-background:new 0 0 100 69.4;" xml:space="preserve">
<style type="text/css">
	.st0{fill:#FFFFFF;}
</style>
<path class="st0" d="M96.1,7.6H3.9C1.7,7.6,0,5.9,0,3.7s1.7-3.9,3.9-3.9h92.2c2.1,0,3.9,1.7,3.9,3.9S98.3,7.6,96.1,7.6z"/>
<path class="st0" d="M96.1,38.6H3.9c-2.1,0-3.9-1.7-3.9-3.9s1.7-3.9,3.9-3.9h92.2c2.1,0,3.9,1.7,3.9,3.9S98.3,38.6,96.1,38.6z"/>
<path class="st0" d="M96.1,69.7H3.9c-2.1,0-3.9-1.7-3.9-3.9c0-2.1,1.7-3.9,3.9-3.9h92.2c2.1,0,3.9,1.7,3.9,3.9
	C100,67.9,98.3,69.7,96.1,69.7z"/>
</svg>
