<?xml version="1.0" encoding="utf-8"?>
<!-- Generator: Adobe Illustrator 23.0.1, SVG Export Plug-In . SVG Version: 6.00 Build 0)  -->
<svg version="1.1" id="Layer_1" xmlns="http://www.w3.org/2000/svg" xmlns:xlink="http://www.w3.org/1999/xlink" x="0px" y="0px"
	 viewBox="0 0 100 100" style="enable-background:new 0 0 100 100;" xml:space="preserve">
<style type="text/css">
	.email0{fill:#F8B7B2;}
	.email1{fill:#FFFFFF;}
</style>
<g>
	<path class="email0" d="M-56.3-48.8c-27.6,0-50,22.4-50,50s22.4,50,50,50c21.9,0,40.5-14.1,47.3-33.7l0,0v-0.1
		c0.2-0.5,0.3-0.9,0.5-1.4l0,0C-7,11.3-6.3,6.3-6.3,1.2C-6.3-26.4-28.7-48.8-56.3-48.8L-56.3-48.8z M-56.3,5.2c-2.4,0-4.8-0.6-7-1.9
		l-35.8-21.5c7.4-16.3,23.8-27.6,42.8-27.6s35.4,11.3,42.8,27.6L-49.3,3.3C-51.5,4.6-53.9,5.2-56.3,5.2L-56.3,5.2z M-11.1,14.2
		l-23-16.6l21.8-13c2,5.2,3,10.8,3,16.6C-9.3,5.7-9.9,10.1-11.1,14.2L-11.1,14.2z M-101.5,14.2c-1.2-4.2-1.8-8.5-1.8-13
		c0-5.9,1.1-11.5,3-16.6l21.7,13.1L-101.5,14.2L-101.5,14.2z M-56.3,48.2c-20.3,0-37.7-13-44.2-31l24.8-17.9l10.9,6.6
		c2.6,1.6,5.6,2.4,8.5,2.4s5.9-0.8,8.5-2.4l10.9-6.6l24.8,17.9C-18.7,35.3-36,48.2-56.3,48.2L-56.3,48.2z"/>
</g>
<g>
	<path class="email1" d="M99,60.2c0.7-3.3,1-6.7,1-10.2c0-5.1-0.8-10.1-2.2-14.7L79.6,46.1L99,60.2z"/>
	<path class="email1" d="M2.2,35.3C0.8,39.9,0,44.9,0,50c0,3.5,0.4,6.9,1,10.2l19.3-13.9L2.2,35.3z"/>
	<path class="email1" d="M50,0C30.5,0,13.7,11.1,5.4,27.4l38,22.8c2,1.2,4.2,1.8,6.6,1.8c2.4,0,4.6-0.6,6.6-1.8l38-22.8
		C86.3,11.1,69.5,0,50,0z"/>
	<path class="email1" d="M50,100c21,0,39-13,46.4-31.3L71.7,50.9l-10.9,6.6c-3.2,2-7.1,3.1-10.9,3.1c-3.8,0-7.7-1.1-10.9-3.1l-10.8-6.6
		L3.6,68.7C11,87,29,100,50,100z"/>
</g>
</svg>
