<?xml version="1.0" encoding="utf-8"?>
<!-- Generator: Adobe Illustrator 23.0.1, SVG Export Plug-In . SVG Version: 6.00 Build 0)  -->
<svg version="1.1" id="Layer_1" xmlns="http://www.w3.org/2000/svg" xmlns:xlink="http://www.w3.org/1999/xlink" x="0px" y="0px"
	 viewBox="0 0 100 100" style="enable-background:new 0 0 100 100;" xml:space="preserve">
<style type="text/css">
	.fb0{fill:#FFFFFF;}
</style>
<path class="fb0" d="M50,100c0.6,0,1.2,0,1.8,0V53.3H37v-8.4h14.7V32.2c0-8.5,7-15.5,15.5-15.5h8.7v8.4h-8.7c-3.9,0-7.1,3.2-7.1,7.1
	v12.6h14.8v8.4H60.1V99c17.5-3.6,31.7-16.4,37.3-33.1c0.5-2.1,0.8-4.3,1-6.6c0.2,0,0.5,0.1,0.7,0.1c0.6-3,0.9-6.2,0.9-9.4
	c0-27.6-22.4-50-50-50S0,22.4,0,50S22.4,100,50,100z"/>
</svg>
