<?xml version="1.0" encoding="utf-8"?>
<!-- Generator: Adobe Illustrator 23.0.1, SVG Export Plug-In . SVG Version: 6.00 Build 0)  -->
<svg version="1.1" id="Layer_1" xmlns="http://www.w3.org/2000/svg" xmlns:xlink="http://www.w3.org/1999/xlink" x="0px" y="0px"
	 viewBox="0 0 100 100" style="enable-background:new 0 0 100 100;" xml:space="preserve">
<style type="text/css">
	.l0{fill:#FFFFFF;}
</style>
<path class="l0" d="M50,0C22.4,0,0,22.4,0,50s22.4,50,50,50s50-22.4,50-50S77.6,0,50,0z M31.9,79.1h-8.3V33.1h8.3V79.1z M27.8,31.3
	c-2.9,0-5.2-2.3-5.2-5.2s2.3-5.2,5.2-5.2s5.2,2.3,5.2,5.2S30.7,31.3,27.8,31.3z M77.4,79.2h-8.3V49.8c0-9.3-6.9-9.3-9.2-9.3
	c-7.7,0-11.1,6.8-11.1,9.3v29.4h-8.3V33.2h8.3v2.4c3.2-2.2,7-3.4,11.1-3.4c12.9,0,17.5,9.1,17.5,17.6V79.2z"/>
</svg>
