<?xml version="1.0" encoding="utf-8"?>
<!-- Generator: Adobe Illustrator 23.0.1, SVG Export Plug-In . SVG Version: 6.00 Build 0)  -->
<svg version="1.1" id="Layer_1" xmlns="http://www.w3.org/2000/svg" xmlns:xlink="http://www.w3.org/1999/xlink" x="0px" y="0px"
	 viewBox="0 0 100 100" style="enable-background:new 0 0 100 100;" xml:space="preserve">
<style type="text/css">
	.p0{fill:#FFFFFF;}
</style>
<path class="p0" d="M50,0C22.4,0,0,22.4,0,50s22.4,50,50,50s50-22.4,50-50S77.6,0,50,0z M77.8,52.3c-2.7,9.1-8.7,16.1-16,18.7
	c-5.5,1.9-10.8,1.2-15.5-2c-0.5-0.3-0.9-0.7-1.4-1.1l-5.4,24.2c-0.6,1.5-2.2,2.6-4,2.6h-0.6l-0.3-0.1c-2.2-0.6-3.6-2.8-3.1-5.1
	l9.7-43.1c0.6-3.7,1.4-6.9,1.8-8.3l0.1-0.5c0.6-2.2,2.8-3.5,5.1-2.9c2.2,0.6,3.6,2.8,3.1,5.1l-1.8,7.9c-1.1,7.2-0.5,12.8,1.6,14.3
	c2.5,1.7,5.2,2,8,1c4.6-1.6,8.8-6.8,10.7-13.2c0.9-3,0.9-9.9-2-15.3c-2.1-3.8-5.2-6.3-9.6-7.6C52,25,45.8,25.9,40.8,29.3
	c-5,3.5-8.2,9.2-8.6,15.2c-0.4,5.8,0.9,7.8,3.1,10.4c0.8,0.9,1.1,2.1,1,3.3c-0.1,1.1-0.7,2-1.6,2.7c-0.9,0.7-2,1-3.2,0.9
	c-1.1-0.1-2-0.7-2.7-1.5c-2.9-3.4-5.7-7.5-5-16.3c0.6-8.5,5.2-16.5,12.2-21.5c7-4.9,15.8-6.2,24.6-3.6c6.5,1.9,11.4,5.8,14.6,11.7
	C79.6,38.7,79.2,48.1,77.8,52.3z"/>
</svg>
