<?xml version="1.0" encoding="utf-8"?>
<!-- Generator: Adobe Illustrator 23.0.1, SVG Export Plug-In . SVG Version: 6.00 Build 0)  -->
<svg version="1.1" id="Layer_1" xmlns="http://www.w3.org/2000/svg" xmlns:xlink="http://www.w3.org/1999/xlink" x="0px" y="0px"
	 viewBox="0 0 100 100" style="enable-background:new 0 0 100 100;" xml:space="preserve">
<style type="text/css">
	.tw0{fill:#F8B7B2;}
	.tw1{fill:#FFFFFF;}
</style>
<path class="tw0" d="M-116.5,43.1c25.9,0,47,21.1,47,47s-21.1,47-47,47s-47-21.1-47-47S-142.4,43.1-116.5,43.1 M-116.5,40.1
	c-27.6,0-50,22.4-50,50s22.4,50,50,50s50-22.4,50-50S-88.9,40.1-116.5,40.1L-116.5,40.1z"/>
<g>
	<path class="tw0" d="M-44.4,134c-0.9,0-1.8,0-2.6-0.1c-3.9-0.3-7.5-1.3-10.9-3c-0.6-0.3-1.2-0.7-1.9-1l-1.7-0.9l0.6-1.6l0.8,0.1
		c4.6,0.4,8.6-0.5,12.3-2.7c-3.8-1-6.4-3.5-8-7.4l-0.6-1.7l1.8,0.3c0.1,0,0.2,0,0.3,0c-3.1-2-4.8-5.2-5-9.4l-0.1-1.6l1.5,0.7
		c0.3,0.2,0.7,0.3,1.1,0.5c-2.8-3.6-3.2-7.8-1-12.6l0.6-1.4l1,1.2c5.3,6.2,11.7,9.6,19.5,10.4c0-0.2,0-0.5-0.1-0.7
		c-0.2-3.6,1.1-6.6,3.7-8.9c2.8-2.6,6.1-3.5,9.9-2.8c2.1,0.4,4,1.4,5.6,2.9c2-0.5,3.7-1.1,5.2-2c0.1-0.1,0.2-0.1,0.4-0.2l2.4-1.1
		l-0.8,2.3c-0.4,1.3-1.1,2.5-1.9,3.6c0.4-0.1,0.7-0.3,1.1-0.4c0.3-0.1,0.6-0.2,0.9-0.3l3.2-1.1l-2.5,3.3c-0.3,0.4-0.7,0.9-1,1.3
		c-1,1.1-2.1,2.2-3.5,3.3c0.1,3-0.3,6-1.1,9c-0.7,2.5-1.7,4.9-3,7.2c-1.7,3.1-4,5.8-6.6,8.1c-2.3,2-4.9,3.6-7.7,4.8
		C-36.1,133.2-40.2,134-44.4,134z M-56.4,129.4c3,1.4,6.1,2.2,9.5,2.5c4.9,0.4,9.5-0.3,13.7-2.1c2.6-1.1,5-2.6,7.1-4.4
		c2.4-2.1,4.5-4.7,6.1-7.5c1.2-2.1,2.1-4.4,2.8-6.7c0.8-2.8,1.1-5.7,1-8.5c0-0.5,0.3-1.1,0.7-1.4c1-0.7,1.8-1.5,2.6-2.3
		c-0.6,0.1-1.1,0.2-1.7,0.4c-0.3,0.1-0.6,0.1-0.8,0.2l-0.8,0.2l-0.7-1.5l0.7-0.6c1.1-0.7,2-1.6,2.6-2.5c-1.1,0.5-2.4,0.9-3.7,1.2
		c-0.6,0.1-1.2,0-1.6-0.5c-1.3-1.3-2.9-2.1-4.6-2.5c-3.2-0.6-5.9,0.2-8.2,2.3c-2.1,2-3.1,4.4-3,7.4c0,0.4,0.1,0.8,0.1,1.1l0.2,1.8
		l-1.2-0.1c-8.3-0.6-15.3-3.9-21-10c-1.5,4.4-0.4,8,3.4,11.2l2.2,1.8h-2.8c-1.2,0-2.3-0.3-3.3-0.6c0.7,3.9,3.1,6.4,7.3,7.7l3.6,1.1
		l-3.6,0.9c-1.1,0.3-2.1,0.4-3.2,0.3c1.7,3.1,4.3,4.7,8.1,5.1l2.6,0.2l-2.1,1.6C-48.1,127.6-52.1,129.1-56.4,129.4z M-14.1,102.5
		L-14.1,102.5L-14.1,102.5z"/>
	<path class="tw0" d="M-44.4,134c-0.9,0-1.8,0-2.6-0.1c-3.9-0.3-7.5-1.3-10.9-3c-0.6-0.3-1.2-0.7-1.9-1l-0.9-0.5
		c-0.4-0.2-0.6-0.8-0.5-1.2v-0.1c0.2-0.4,0.6-0.7,1-0.7c4.6,0.4,8.6-0.5,12.3-2.7c-3.8-1-6.4-3.5-8-7.4c-0.1-0.3-0.1-0.7,0.2-1
		c0.2-0.3,0.6-0.4,0.9-0.4c0.1,0,0.2,0,0.3,0c-3.1-2-4.8-5.2-5-9.4c0-0.3,0.1-0.7,0.4-0.9c0.3-0.2,0.7-0.2,1-0.1
		c0.3,0.2,0.7,0.3,1.1,0.5c-2.8-3.6-3.2-7.8-1-12.6c0.1-0.3,0.4-0.5,0.8-0.6c0.3,0,0.7,0.1,0.9,0.3c5.3,6.2,11.7,9.6,19.5,10.4
		c0-0.2,0-0.5-0.1-0.7c-0.2-3.6,1.1-6.6,3.7-8.9c2.8-2.6,6.1-3.5,9.9-2.8c2.1,0.4,4,1.4,5.6,2.9c2-0.5,3.7-1.1,5.2-2
		c0.1-0.1,0.2-0.1,0.4-0.2l0.2-0.1c0.4-0.2,0.8-0.1,1.1,0.1c0.3,0.3,0.4,0.7,0.3,1.1c-0.4,1.3-1.1,2.5-1.9,3.6
		c0.4-0.1,0.7-0.3,1.1-0.4c0.3-0.1,0.6-0.2,0.9-0.3c0.4-0.1,0.9,0,1.1,0.4s0.2,0.8,0,1.2L-9.8,98c-0.3,0.4-0.7,0.9-1,1.3
		c-1,1.1-2.1,2.2-3.5,3.3c0.1,3-0.3,6-1.1,9c-0.7,2.5-1.7,4.9-3,7.2c-1.7,3.1-4,5.8-6.6,8.1c-2.3,2-4.9,3.6-7.7,4.8
		C-36.1,133.2-40.2,134-44.4,134z M-56.4,129.4c3,1.4,6.1,2.2,9.5,2.5c4.9,0.4,9.5-0.3,13.7-2.1c2.6-1.1,5-2.6,7.1-4.4
		c2.4-2.1,4.5-4.7,6.1-7.5c1.2-2.1,2.1-4.4,2.8-6.7c0.8-2.8,1.1-5.7,1-8.5c0-0.5,0.3-1.1,0.7-1.4c1-0.7,1.8-1.5,2.6-2.3
		c-0.6,0.1-1.1,0.2-1.7,0.4c-0.3,0.1-0.6,0.1-0.8,0.2c-0.5,0.1-0.9-0.1-1.1-0.6c-0.2-0.4-0.1-1.1,0.3-1.4c1.1-0.7,2-1.6,2.6-2.5
		c-1.1,0.5-2.4,0.9-3.7,1.2c-0.6,0.1-1.2,0-1.6-0.5c-1.3-1.3-2.9-2.1-4.6-2.5c-3.2-0.6-5.9,0.2-8.2,2.3c-2.1,2-3.1,4.4-3,7.4
		c0,0.4,0.1,0.8,0.1,1.1l0.1,0.6c0,0.3-0.1,0.6-0.3,0.8c-0.2,0.2-0.5,0.3-0.8,0.3c-8.3-0.6-15.3-3.9-21-10c-1.5,4.4-0.4,8,3.4,11.2
		c0.3,0.3,0.4,0.7,0.3,1.1c-0.1,0.4-0.5,0.7-1,0.7c-1.2,0-2.3-0.3-3.3-0.6c0.7,3.9,3.1,6.4,7.3,7.7c0.4,0.1,0.7,0.5,0.7,1
		s-0.3,0.8-0.8,0.9c-1.1,0.3-2.1,0.4-3.2,0.3c1.7,3.1,4.3,4.7,8.1,5.1c0.4,0,0.8,0.3,0.9,0.7s0,0.8-0.4,1.1
		C-48.1,127.6-52.1,129.1-56.4,129.4z M-14.1,102.5L-14.1,102.5L-14.1,102.5z"/>
</g>
<path class="tw0" d="M-63.4,65.1c-0.9,0-1.8,0-2.6-0.1c-3.9-0.3-7.5-1.3-10.9-3c-0.6-0.3-1.2-0.7-1.9-1l-1.7-0.9l0.6-1.6l0.8,0.1
	c4.6,0.4,8.6-0.5,12.3-2.7c-3.8-1-6.4-3.5-8-7.4l-0.6-1.7l1.8,0.3c0.1,0,0.2,0,0.3,0c-3.1-2-4.8-5.2-5-9.4l-0.1-1.6l1.5,0.7
	c0.3,0.2,0.7,0.3,1.1,0.5c-2.8-3.6-3.2-7.8-1-12.6l0.6-1.4l1,1.2c5.3,6.2,11.7,9.6,19.5,10.4c0-0.2,0-0.5-0.1-0.7
	c-0.2-3.6,1.1-6.6,3.7-8.9c2.8-2.6,6.1-3.5,9.9-2.8c2.1,0.4,4,1.4,5.6,2.9c2-0.5,3.7-1.1,5.2-2c0.1-0.1,0.2-0.1,0.4-0.2l2.4-1.1
	l-0.8,2.3c-0.4,1.3-1.1,2.5-1.9,3.6c0.4-0.1,0.7-0.3,1.1-0.4c0.3-0.1,0.6-0.2,0.9-0.3l3.2-1.1l-2.5,3.3c-0.3,0.4-0.7,0.9-1,1.3
	c-1,1.1-2.1,2.2-3.5,3.3c0.1,3-0.3,6-1.1,9c-0.7,2.5-1.7,4.9-3,7.2c-1.7,3.1-4,5.8-6.6,8.1c-2.3,2-4.9,3.6-7.7,4.8
	C-55.1,64.3-59.2,65.1-63.4,65.1z M-33.1,33.6L-33.1,33.6L-33.1,33.6z"/>
<path class="tw1" d="M50,0C22.4,0,0,22.4,0,50s22.4,50,50,50s50-22.4,50-50S77.6,0,50,0z M75.9,35l-0.5,0.6c-0.3,0.4-0.7,0.9-1,1.3
	c-1,1.1-2.1,2.2-3.5,3.3c0.1,3-0.3,6-1.1,9c-0.7,2.5-1.7,4.9-3,7.2c-1.7,3.1-4,5.8-6.6,8.1c-2.3,2-4.9,3.6-7.7,4.8
	c-3.4,1.5-7.5,2.3-11.7,2.3c-0.9,0-1.8,0-2.6-0.1c-3.9-0.3-7.5-1.3-10.9-3c-0.6-0.3-1.2-0.7-1.9-1L24.5,67c-0.4-0.2-0.6-0.8-0.5-1.2
	v-0.1c0.2-0.4,0.6-0.7,1-0.7c4.6,0.4,8.6-0.5,12.3-2.7c-3.8-1-6.4-3.5-8-7.4c-0.1-0.3-0.1-0.7,0.2-1c0.2-0.3,0.6-0.4,0.9-0.4
	c0.1,0,0.2,0,0.3,0c-3.1-2-4.8-5.2-5-9.4c0-0.3,0.1-0.7,0.4-0.9c0.3-0.2,0.7-0.2,1-0.1c0.3,0.2,0.7,0.3,1.1,0.5
	c-2.8-3.6-3.2-7.8-1-12.6c0.1-0.3,0.4-0.5,0.8-0.6c0.3,0,0.7,0.1,0.9,0.3c5.3,6.2,11.7,9.6,19.5,10.4c0-0.2,0-0.5-0.1-0.7
	c-0.2-3.6,1.1-6.6,3.7-8.9c2.8-2.6,6.1-3.5,9.9-2.8c2.1,0.4,4,1.4,5.6,2.9c2-0.5,3.7-1.1,5.2-2c0.1-0.1,0.2-0.1,0.4-0.2l0.2-0.1
	c0.4-0.2,0.8-0.1,1.1,0.1c0.3,0.3,0.4,0.7,0.3,1.1c-0.4,1.3-1.1,2.5-1.9,3.6c0.4-0.1,0.7-0.3,1.1-0.4c0.3-0.1,0.6-0.2,0.9-0.3
	c0.4-0.1,0.9,0,1.1,0.4C76.1,34.2,76.1,34.6,75.9,35z"/>
</svg>
